<?xml version="1.0" encoding="UTF-8" standalone="no"?>
<!-- Created with Inkscape (http://www.inkscape.org/) -->

<svg
   width="210mm"
   height="297mm"
   viewBox="0 0 210 297"
   version="1.1"
   id="svg1"
   inkscape:export-filename="bitmap.svg"
   inkscape:export-xdpi="96"
   inkscape:export-ydpi="96"
   inkscape:version="1.3.2 (091e20e, 2023-11-25)"
   sodipodi:docname="Palmeres1.svg"
   xmlns:inkscape="http://www.inkscape.org/namespaces/inkscape"
   xmlns:sodipodi="http://sodipodi.sourceforge.net/DTD/sodipodi-0.dtd"
   xmlns:xlink="http://www.w3.org/1999/xlink"
   xmlns="http://www.w3.org/2000/svg"
   xmlns:svg="http://www.w3.org/2000/svg">
  <sodipodi:namedview
     id="namedview1"
     pagecolor="#ffffff"
     bordercolor="#000000"
     borderopacity="0.25"
     inkscape:showpageshadow="2"
     inkscape:pageopacity="0.0"
     inkscape:pagecheckerboard="0"
     inkscape:deskcolor="#d1d1d1"
     inkscape:document-units="mm"
     inkscape:zoom="0.65975396"
     inkscape:cx="587.34017"
     inkscape:cy="350.88839"
     inkscape:window-width="1392"
     inkscape:window-height="1122"
     inkscape:window-x="0"
     inkscape:window-y="25"
     inkscape:window-maximized="0"
     inkscape:current-layer="layer1" />
  <defs
     id="defs1">
    <linearGradient
       id="linearGradient1"
       inkscape:collect="always">
      <stop
         style="stop-color:#000000;stop-opacity:1;"
         offset="0"
         id="stop1" />
      <stop
         style="stop-color:#1d2127;stop-opacity:0.3878327;"
         offset="1"
         id="stop2" />
    </linearGradient>
    <linearGradient
       inkscape:collect="always"
       xlink:href="#linearGradient1"
       id="linearGradient2"
       x1="153.95777"
       y1="44.192619"
       x2="202.78906"
       y2="44.192619"
       gradientUnits="userSpaceOnUse" />
  </defs>
  <g
     inkscape:label="Capa 1"
     inkscape:groupmode="layer"
     id="layer1">
    <path
       id="path14"
       d="m 54.001595,66.000142 c 0.148746,-0.63996 0.487961,-1.23538 0.963319,-1.68847 1.347406,3.90717 2.607455,7.84584 3.778953,11.81059 1.0133,-2.82824 2.026489,-5.65539 3.039789,-8.48254 0.391914,0.73014 0.783824,1.4603 1.175626,2.19045 -0.170366,-3.5334 -0.340846,-7.06789 -0.511321,-10.60238 1.145204,1.28863 2.290407,2.57617 3.435501,3.86479 -1.147163,-4.55039 -2.599309,-9.02363 -4.343407,-13.38062 1.423136,0.78339 2.700359,1.8308 3.747228,3.07379 -1.027312,-4.52322 -2.05463,-9.04754 -3.081839,-13.57076 -0.555324,-2.4447 -1.170301,-5.00783 -2.858878,-6.86036 -4.415552,-4.84702 -12.558124,-1.47877 -12.947972,4.88178 -0.148963,2.42948 0.841845,4.97088 0.925507,7.43079 0.120714,3.54861 0.732757,6.98856 1.819723,10.37202 1.224628,3.81155 2.93548,7.45469 4.857771,10.96092"
       style="fill:#566e3e;fill-opacity:1;fill-rule:nonzero;stroke:none;stroke-width:0.0108653" />
    <path
       id="path15"
       d="m 72.046373,20.743952 c 4.732172,1.30601 9.137404,3.94737 12.268239,7.72741 5.113429,6.17476 6.388369,14.60081 7.045179,22.59116 0.46264,5.62714 0.71472,11.30752 -0.012,16.90642 -0.95442,-2.02421 -1.90871,-4.04733 -2.863125,-6.07045 -0.256205,1.6776 -0.5123,3.35629 -0.768287,5.03498 -1.614911,-4.1864 -3.291754,-8.3489 -5.029767,-12.48641 -0.960823,1.6537 -1.921641,3.3074 -2.882568,4.9611 -0.04051,-1.20388 -0.257402,-2.40232 -0.641271,-3.54426 -1.046004,1.47768 -2.092007,2.95644 -3.138011,4.43521 -0.470034,-4.74922 -1.249292,-9.46802 -2.331371,-14.1162 -1.092724,0.98982 -2.185556,1.97966 -3.278279,2.96948 -0.357147,-1.1126 -0.965386,-2.14372 -1.766264,-2.99447 -0.767852,0.94202 -1.535704,1.88295 -2.303556,2.82498 0.27109,-0.33248 -7.518143,-6.81364 -8.228301,-7.42427 -2.837037,-2.44035 -5.646482,-4.97957 -7.834429,-8.03707 -1.635338,-2.28606 -3.831761,-5.66082 -2.079186,-8.44886 1.750402,-2.7837 6.1188,-4.02451 9.09209,-4.64384 4.843647,-1.00939 9.966968,-1.00395 14.750962,0.31509"
       style="fill:#668944;fill-opacity:1;fill-rule:nonzero;stroke:none;stroke-width:0.0108653" />
    <path
       id="path16"
       d="m 20.370526,46.859812 c -0.07475,-7.32213 2.325938,-15.02563 7.963947,-19.69989 5.110933,-4.23638 12.168495,-5.43157 18.78862,-4.93611 2.091138,0.15646 4.392736,0.58781 5.666042,2.25455 0.842171,1.10174 1.067299,2.54683 1.175735,3.9289 0.227303,2.89778 0.06215,5.82489 -0.489699,8.67812 -0.664197,3.43344 -1.878721,6.73215 -3.088247,10.01347 -1.154874,3.13356 -2.309639,6.26603 -3.464513,9.39958 -2.071689,-1.79169 -4.284626,-3.41822 -6.61165,-4.86222 -0.362032,1.45812 -0.557608,2.95754 -0.581728,4.45912 -0.649529,-0.78665 -1.458994,-1.44074 -2.36451,-1.91012 -0.05835,4.38415 -0.385935,8.76504 -0.980376,13.10899 -1.970859,-1.94706 -4.233668,-3.5975 -6.689337,-4.87961 -0.175366,2.097 -0.350841,4.19292 -0.526098,6.28993 -0.543592,-1.11478 -1.920662,-4.36568 -2.464144,-5.48046 0.401473,0.40201 -0.662893,7.85018 -1.073602,9.09643 -1.626971,-1.76018 -2.82335,-5.54457 -3.177559,-8.09139 -0.79947,-5.74667 -2.023121,-11.51615 -2.082881,-17.36929"
       style="fill:#668944;fill-opacity:1;fill-rule:nonzero;stroke:none;stroke-width:0.0108653" />
    <path
       id="path17"
       d="m 39.835186,123.26576 c 0,0 -1.281454,-27.558768 0.469382,-43.229808 3.570884,-31.96357 12.698505,-52.82605 12.698505,-52.82605 h 5.215674 c 0,0 -9.560929,40.42113 -9.46564,53.8952 0.173736,24.557768 7.075165,42.160658 7.075165,42.160658 H 39.835186"
       style="fill:#63442b;fill-opacity:1;fill-rule:nonzero;stroke:none;stroke-width:0.0108653" />
    <path
       id="path18"
       d="m 46.751391,89.973362 c -0.500782,-0.23251 -1.071103,-0.30205 -1.616541,-0.33139 -0.552392,-0.0293 -1.10761,-0.013 -1.657177,0.0511 -1.057086,0.12387 -2.105262,0.44765 -3.031205,0.97462 -0.313137,0.17819 -0.609434,0.38137 -0.889216,0.60628 -0.08464,2.44905 -0.134187,4.95567 -0.157547,7.437311 0.590638,-0.46178 1.180951,-0.92355 1.772458,-1.383151 0.796862,-0.62041 1.60937,-1.22887 2.558237,-1.5972 0.994285,-0.38572 2.068864,-0.38029 3.098244,-0.1456 1.025467,0.23469 2.015949,0.67039 2.939283,1.16802 -0.154831,-1.26798 -0.296188,-2.57073 -0.421139,-3.90607 -0.377244,-0.53567 -0.768286,-1.06155 -1.176931,-1.57331 -0.405059,-0.5074 -0.816202,-1.02133 -1.418466,-1.30057"
       style="fill:#95693f;fill-opacity:1;fill-rule:nonzero;stroke:none;stroke-width:0.0108653" />
    <path
       id="path19"
       d="m 46.533541,69.419452 c -0.464926,-0.17927 -0.85423,-0.0532 -1.276565,0.17385 -1.3423,0.72145 -2.643747,1.53418 -3.907817,2.39254 -0.08442,0.57152 -0.167218,1.14738 -0.248381,1.7265 0.41864,-0.25642 0.872158,-0.452 1.357512,-0.55522 1.018188,-0.21622 2.035941,0.0358 2.872244,0.64431 0.80675,0.58673 1.424986,1.37881 1.996284,2.18719 0.513603,0.72689 1.018405,1.4603 1.523316,2.19262 0.131253,-2.04594 0.389196,-4.43196 0.738733,-7.0342 -0.592268,-0.39332 -1.200834,-0.76166 -1.823851,-1.10392 -0.398975,-0.21839 -0.806206,-0.4596 -1.231475,-0.62367"
       style="fill:#95693f;fill-opacity:1;fill-rule:nonzero;stroke:none;stroke-width:0.0108653" />
    <path
       id="path20"
       d="m 41.655669,82.124262 c 1.526142,-1.03437 3.405732,-2.34582 5.3516,-1.78408 0.488504,0.14124 0.926485,0.4031 1.343387,0.68777 0.136142,0.0924 0.27022,0.18906 0.404733,0.28359 -5.45e-4,-0.0685 -0.0019,-0.1369 -0.0023,-0.20644 -0.0039,-0.55522 0.009,-1.15824 0.0364,-1.80039 -0.719069,-1.0398 -1.425966,-2.0894 -2.163286,-3.11617 -0.511973,-0.71276 -1.085227,-1.43531 -1.828414,-1.9199 -0.784041,-0.51067 -1.678799,-0.63453 -2.569103,-0.33356 -0.46384,0.15646 -0.879329,0.40636 -1.256138,0.70841 -0.238928,1.76019 -0.462971,3.55731 -0.667999,5.39246 -0.114303,1.02242 -0.215568,2.09701 -0.305207,3.2107 0.552066,-0.37485 1.104241,-0.74862 1.656308,-1.12239"
       style="fill:#95693f;fill-opacity:1;fill-rule:nonzero;stroke:none;stroke-width:0.0108653" />
    <path
       id="path21"
       d="m 47.753173,89.800612 c 0.46058,0.3781 0.822504,0.87683 1.186166,1.34512 0.09866,0.12604 0.193837,0.25533 0.290864,0.38355 -0.09757,-1.1615 -0.182754,-2.34691 -0.252618,-3.55405 -0.0339,-0.0174 -0.06769,-0.0348 -0.101591,-0.0522 -1.052088,-0.5411 -2.103959,-1.08219 -3.155938,-1.62328 -0.531206,-0.27381 -1.062302,-0.54761 -1.593398,-0.82033 -0.453844,-0.2336 -0.909427,-0.47264 -1.409013,-0.59324 -0.932026,-0.22383 -1.841345,0.1934 -2.502933,0.84097 -0.153418,0.14994 -0.291734,0.31292 -0.422009,0.48242 -0.08149,1.36034 -0.148638,2.76087 -0.203398,4.18531 1.438458,-0.9757 3.200485,-1.44182 4.938283,-1.45594 1.12608,-0.009 2.326263,0.12169 3.225585,0.86162"
       style="fill:#95693f;fill-opacity:1;fill-rule:nonzero;stroke:none;stroke-width:0.0108653" />
    <path
       id="path22"
       d="m 54.793676,42.610392 c 0.285215,-1.3473 0.563585,-2.64353 0.830437,-3.87348 -0.504151,-0.33683 -1.037746,-0.63236 -1.595572,-0.86922 -0.666804,-0.28251 -1.369463,-0.48025 -2.09896,-0.39007 -1.206702,0.15103 -2.253466,0.91703 -3.184297,1.67977 -0.157656,0.50742 -0.317701,1.03004 -0.479486,1.5657 0.861402,0.01 1.73117,0.0695 2.579642,0.18797 1.435524,0.19992 2.888325,0.71059 3.948236,1.69933"
       style="fill:#95693f;fill-opacity:1;fill-rule:nonzero;stroke:none;stroke-width:0.0108653" />
    <path
       id="path23"
       d="m 45.362261,103.94507 c -0.658872,-0.19015 -1.313616,-0.39442 -1.965643,-0.60629 -0.609436,-0.19883 -1.223326,-0.39658 -1.856556,-0.50415 -0.743404,-0.12712 -1.521686,-0.0728 -2.156438,0.27924 0.0052,2.91299 0.04009,5.71298 0.08855,8.25003 0.582816,-0.29119 1.165631,-0.58238 1.748555,-0.87357 1.140532,-0.57043 2.280954,-1.14086 3.421377,-1.7102 1.077187,-0.53892 2.145465,-1.14195 3.276326,-1.56135 0.977226,-0.3629 2.078751,-0.53023 3.071297,-0.13038 0.165805,0.0674 0.327915,0.14777 0.482854,0.24012 -0.127667,-0.63453 -0.253813,-1.28319 -0.377786,-1.94924 -0.587596,-0.13147 -1.174649,-0.26402 -1.760506,-0.40201 -1.331544,-0.31401 -2.657982,-0.65083 -3.972032,-1.0322"
       style="fill:#95693f;fill-opacity:1;fill-rule:nonzero;stroke:none;stroke-width:0.0108653" />
    <path
       id="path24"
       d="m 46.487147,80.927992 c -0.854122,-0.13473 -1.726281,0.16841 -2.478812,0.5487 -0.86477,0.43679 -1.655222,1.00504 -2.455343,1.54722 -0.540441,0.36616 -1.080881,0.73232 -1.621213,1.09848 -0.02412,0.32813 -0.04759,0.65844 -0.06986,0.99201 0.05759,-0.0522 0.116585,-0.10214 0.177213,-0.15103 0.841736,-0.67365 1.885458,-1.00613 2.94928,-0.71929 0.544244,0.14669 1.048937,0.41506 1.547546,0.67148 0.551415,0.28467 1.102938,0.56826 1.65457,0.85184 0.914533,0.47047 1.829066,0.94094 2.743708,1.41141 -0.08518,-1.63524 -0.143531,-3.3085 -0.169064,-5.0176 -0.335086,-0.24556 -0.67365,-0.48786 -1.023404,-0.71168 -0.388109,-0.24773 -0.795667,-0.44874 -1.254617,-0.52154"
       style="fill:#95693f;fill-opacity:1;fill-rule:nonzero;stroke:none;stroke-width:0.0108653" />
    <path
       id="path25"
       d="m 50.968761,44.565062 c 0.498609,-0.16624 1.009713,-0.38137 1.527663,-0.47808 0.525881,-0.0978 0.97527,0.0348 1.409122,0.33792 0.150267,0.10539 0.29521,0.21839 0.436242,0.33573 0.09442,-0.45308 0.188405,-0.90182 0.281846,-1.34512 -0.384306,-0.43787 -0.859446,-0.79099 -1.376309,-1.06697 -1.420965,-0.75731 -3.068037,-0.86705 -4.646658,-0.91704 -0.178517,-0.005 -0.359424,-0.0152 -0.540441,-0.0206 -0.428745,1.44074 -0.868573,2.98035 -1.312964,4.61558 0.909426,-0.32596 1.8207,-0.64757 2.734908,-0.96049 0.494806,-0.16842 0.990373,-0.33574 1.486591,-0.50089"
       style="fill:#95693f;fill-opacity:1;fill-rule:nonzero;stroke:none;stroke-width:0.0108653" />
    <path
       id="path26"
       d="m 53.250042,44.829092 c -0.40984,-0.20644 -0.853688,-0.01 -1.256139,0.12277 -1.830805,0.59977 -3.652157,1.22779 -5.464273,1.88188 -0.162762,0.60846 -0.325851,1.22995 -0.489157,1.86232 0.833696,0.0978 1.635121,0.4596 2.31768,0.93767 0.92203,0.6454 1.708353,1.47334 2.481202,2.28606 0.578578,0.60737 1.139772,1.23213 1.685536,1.86883 0.544243,-2.81846 1.106197,-5.60433 1.655439,-8.2522 -0.276522,-0.26511 -0.58575,-0.53349 -0.930288,-0.70733"
       style="fill:#95693f;fill-opacity:1;fill-rule:nonzero;stroke:none;stroke-width:0.0108653" />
    <path
       id="path27"
       d="m 41.600365,102.15012 c 0.676365,0.10213 1.330783,0.31183 1.979442,0.5237 0.683862,0.22274 1.370551,0.4357 2.061801,0.63454 1.757356,0.50632 3.534703,0.9355 5.318678,1.33643 -0.396149,-2.1937 -0.766004,-4.54604 -1.08577,-7.039628 -0.25979,-0.15212 -0.523926,-0.29771 -0.792842,-0.43353 -0.874984,-0.44222 -1.804511,-0.81924 -2.774022,-0.98983 -0.938437,-0.16516 -1.879265,-0.0532 -2.737081,0.36616 -0.856621,0.41831 -1.602524,1.02569 -2.350058,1.609151 -0.609435,0.4759 -1.218653,0.95181 -1.827979,1.42662 -0.0066,0.928977 -0.0097,1.852527 -0.0097,2.766297 0.683537,-0.27597 1.46258,-0.314 2.217502,-0.19991"
       style="fill:#95693f;fill-opacity:1;fill-rule:nonzero;stroke:none;stroke-width:0.0108653" />
    <path
       id="path28"
       d="m 51.868409,31.037752 c 0.699726,-0.30423 1.433025,-0.50741 2.183275,-0.64105 0.726237,-0.1293 1.465296,-0.21405 2.203811,-0.21079 0.414294,0.002 0.835758,0.0348 1.249944,0.10431 0.44537,-1.94815 0.713308,-3.08032 0.713308,-3.08032 h -5.215782 c 0,0 -0.615846,1.40815 -1.588943,4.04842 0.148963,-0.0793 0.299991,-0.1532 0.454387,-0.22057"
       style="fill:#95693f;fill-opacity:1;fill-rule:nonzero;stroke:none;stroke-width:0.0108653" />
    <path
       id="path29"
       d="m 49.418281,115.5666 c 1.530488,0.55522 3.035225,1.18106 4.510734,1.86992 -0.687122,-2.3795 -1.479747,-5.42614 -2.235321,-9.02907 -0.345407,-0.43027 -0.883458,-0.70733 -1.436719,-0.81925 -0.977335,-0.19666 -2.003238,0.19341 -2.875505,0.60085 -1.066104,0.49655 -2.109934,1.04524 -3.162022,1.57113 -1.577426,0.78882 -3.154852,1.57656 -4.732386,2.36538 0.02293,1.1213 0.04835,2.18719 0.07454,3.18245 0.357251,-0.24339 0.731779,-0.45961 1.130209,-0.63562 2.831175,-1.24517 6.000694,-0.0956 8.726474,0.89421"
       style="fill:#95693f;fill-opacity:1;fill-rule:nonzero;stroke:none;stroke-width:0.0108653" />
    <path
       id="path30"
       d="m 52.931905,117.73097 c -1.339801,-0.60303 -2.70481,-1.15063 -4.089811,-1.64066 -1.381633,-0.49002 -2.791842,-0.97462 -4.247576,-1.18541 -1.361641,-0.19774 -2.76044,-0.0837 -3.987786,0.57369 -0.360946,0.19341 -0.698422,0.42157 -1.022317,0.66713 0.120713,4.32113 0.250771,7.12004 0.250771,7.12004 h 15.993086 c 0,0 -0.690927,-1.76344 -1.640663,-4.94806 -0.416141,-0.20101 -0.834456,-0.39767 -1.255704,-0.58673"
       style="fill:#95693f;fill-opacity:1;fill-rule:nonzero;stroke:none;stroke-width:0.0108653" />
    <path
       id="path31"
       d="m 53.919019,31.121412 c -1.032422,0.21188 -2.059303,0.56717 -2.892889,1.20388 -0.155809,0.43352 -0.318245,0.89204 -0.487201,1.37772 0.685384,-0.0869 1.376201,-0.11843 2.067017,-0.0804 0.679191,0.038 1.357729,0.14016 1.98444,0.41505 0.58738,0.25751 1.010908,0.68451 1.403257,1.17889 0.101699,0.12821 0.205677,0.26294 0.315961,0.39224 0.39615,-1.79061 0.750683,-3.3639 1.043612,-4.65144 -1.131187,-0.18688 -2.325718,-0.063 -3.434197,0.16406"
       style="fill:#95693f;fill-opacity:1;fill-rule:nonzero;stroke:none;stroke-width:0.0108653" />
    <path
       id="path32"
       d="m 55.506333,35.703312 c -0.360838,-0.45416 -0.73254,-0.85401 -1.28189,-1.07783 -0.601178,-0.24339 -1.26168,-0.30641 -1.904363,-0.32596 -0.683319,-0.0206 -1.363923,0.0293 -2.034747,0.13907 -0.370289,1.0811 -0.766548,2.2752 -1.181168,3.57904 0.285975,-0.20536 0.580208,-0.39876 0.887805,-0.57043 0.657025,-0.36617 1.375548,-0.63019 2.131231,-0.67583 0.826958,-0.05 1.615671,0.2184 2.361032,0.5487 0.449171,0.19884 0.881393,0.4357 1.296232,0.69864 0.120497,-0.55305 0.238165,-1.08979 0.352905,-1.61132 -0.229692,-0.2097 -0.430811,-0.45635 -0.627037,-0.70408"
       style="fill:#95693f;fill-opacity:1;fill-rule:nonzero;stroke:none;stroke-width:0.0108653" />
    <path
       id="path33"
       d="m 46.169662,55.875852 c 1.048394,-0.40202 2.14101,-0.7258 3.248293,-0.91812 0.569451,-0.1 1.146182,-0.13799 1.71096,0.01 0.386263,0.10104 0.745579,0.27706 1.074689,0.4998 0.05139,-0.27054 0.102785,-0.54109 0.154504,-0.81164 -0.702007,-0.83663 -1.429983,-1.65152 -2.187404,-2.43817 -0.722217,-0.7508 -1.456169,-1.53092 -2.332021,-2.1057 -0.583685,-0.38246 -1.267873,-0.67908 -1.97075,-0.74319 -0.590639,2.32301 -1.180299,4.80573 -1.752901,7.43621 0.666044,-0.34768 1.351971,-0.65842 2.05463,-0.92898"
       style="fill:#95693f;fill-opacity:1;fill-rule:nonzero;stroke:none;stroke-width:0.0108653" />
    <path
       id="path34"
       d="m 45.207974,58.986582 c 0.495023,0.0837 0.949628,0.34661 1.393693,0.56826 0.472967,0.23687 0.943978,0.47698 1.412925,0.72037 1.015254,0.52805 2.020187,1.07567 3.015884,1.63849 0.325633,-1.87753 0.67278,-3.78874 1.031878,-5.69885 -0.172867,-0.14016 -0.359641,-0.26403 -0.561736,-0.36942 -0.88574,-0.46069 -1.838954,-0.26077 -2.764569,-0.0413 -1.686948,0.39984 -3.305663,1.04089 -4.812681,1.89165 -0.113542,0.53239 -0.226542,1.06914 -0.338346,1.61349 0.491656,-0.27706 1.047851,-0.42048 1.622952,-0.3227"
       style="fill:#95693f;fill-opacity:1;fill-rule:nonzero;stroke:none;stroke-width:0.0108653" />
    <path
       id="path35"
       d="m 48.244828,64.100892 c 0.896171,0.53131 1.538854,1.34404 2.049523,2.24586 0.191664,-1.21366 0.396367,-2.4523 0.611282,-3.70834 -0.207635,-0.11843 -0.413859,-0.23903 -0.622364,-0.35638 -0.884111,-0.49437 -1.775935,-0.9757 -2.675148,-1.44182 -0.449607,-0.23361 -0.90106,-0.46395 -1.354252,-0.68995 -0.391261,-0.19557 -0.80349,-0.44656 -1.245491,-0.50089 -0.609544,-0.075 -1.177039,0.23904 -1.625016,0.653 -0.274892,1.36686 -0.544026,2.76848 -0.804902,4.20488 1.798426,-0.79208 3.844907,-1.48529 5.666368,-0.40636"
       style="fill:#95693f;fill-opacity:1;fill-rule:nonzero;stroke:none;stroke-width:0.0108653" />
    <path
       id="path36"
       d="m 42.788813,70.240882 c 0.442978,-0.27381 0.889977,-0.54001 1.34067,-0.80078 0.436025,-0.25208 0.875309,-0.53566 1.353491,-0.70081 0.512952,-0.17819 1.001891,-0.0967 1.485941,0.12169 0.464274,0.20861 0.914424,0.45743 1.358054,0.70624 0.463732,0.26077 0.918445,0.53675 1.364901,0.82577 0.130275,-0.93985 0.271524,-1.90469 0.422443,-2.89017 -0.229692,-0.48242 -0.483724,-0.9518 -0.784258,-1.39294 -0.443631,-0.65083 -1.008953,-1.22777 -1.726824,-1.57112 -0.89617,-0.42701 -1.919139,-0.36073 -2.854425,-0.11083 -0.801426,0.21513 -1.562649,0.5487 -2.315941,0.89422 -0.331175,1.86231 -0.648659,3.78004 -0.947672,5.75209 0.430809,-0.28358 0.864769,-0.56282 1.30362,-0.83336"
       style="fill:#95693f;fill-opacity:1;fill-rule:nonzero;stroke:none;stroke-width:0.0108653" />
    <path
       id="path37"
       d="m 47.030738,115.47859 c -0.799469,-0.24664 -1.610565,-0.45417 -2.43622,-0.57369 -0.389412,-0.0565 -0.781976,-0.088 -1.172584,-0.088 -0.366052,0 -0.730475,0.0272 -1.089139,0.0858 -0.05965,-0.22274 -0.114737,-0.44656 -0.165913,-0.67147 0.41299,-0.0706 0.830327,-0.10214 1.249293,-0.10214 1.168456,0 2.351145,0.24773 3.501129,0.58673 0.04075,0.25207 0.08171,0.50741 0.113434,0.76274 m -5.359423,-4.445 c -0.02434,-0.24446 -0.04639,-0.49002 -0.06682,-0.73558 1.012539,-0.50632 2.025186,-1.01156 3.037615,-1.51788 0.442327,-0.22165 0.883132,-0.45308 1.327415,-0.67908 0.03021,0.24229 0.06106,0.48567 0.09225,0.72906 -0.615411,0.30748 -1.227455,0.62258 -1.842322,0.93007 -0.849341,0.42483 -1.698683,0.84967 -2.548133,1.27341 m 3.831326,-7.04724 c -0.04672,-0.0142 -0.09355,-0.0272 -0.14038,-0.0413 -0.658872,-0.19014 -1.313616,-0.39441 -1.965643,-0.60628 -0.609436,-0.19884 -1.223326,-0.39659 -1.856556,-0.50416 -0.117236,-0.0206 -0.235451,-0.0359 -0.353774,-0.0467 -0.009,-0.22925 -0.01771,-0.45634 -0.02608,-0.68668 0.147116,0.0109 0.294015,0.0272 0.440154,0.0489 0.676365,0.10213 1.330783,0.31183 1.979442,0.5237 0.613564,0.19993 1.22941,0.39224 1.848733,0.57369 0.02434,0.24665 0.04889,0.49111 0.0741,0.73885 m -4.444889,-5.702117 c -0.0048,-0.28576 -0.009,-0.572601 -0.01239,-0.858361 0.04227,-0.0326 0.08453,-0.0652 0.126798,-0.0978 0.796862,-0.6204 1.60937,-1.22887 2.558238,-1.5972 0.355621,-0.13799 0.721673,-0.22599 1.092072,-0.27163 0.01336,0.23143 0.02705,0.46069 0.04118,0.69212 -0.444065,0.0619 -0.878243,0.1934 -1.29308,0.39658 -0.856621,0.41832 -1.602525,1.02569 -2.350058,1.609161 -0.05433,0.0423 -0.108545,0.0848 -0.162763,0.12712 m 0.06009,-7.954501 c 0.0087,-0.25098 0.01804,-0.50089 0.02803,-0.75187 1.070668,-0.42266 2.231409,-0.63019 3.381719,-0.63888 0.0085,0 0.01706,0 0.02564,0 0.0058,0.23034 0.01184,0.45851 0.01847,0.68886 -0.365617,0.001 -0.731018,0.0228 -1.094028,0.0652 -0.808705,0.0945 -1.612303,0.3064 -2.359837,0.6367"
       style="fill:#806753;fill-opacity:1;fill-rule:nonzero;stroke:none;stroke-width:0.0108653" />
    <path
       id="path38"
       d="m 41.045365,97.425882 c -0.02857,-2.36647 -0.0089,-4.73402 0.07247,-7.09614 0.747534,-0.3303 1.551132,-0.54217 2.359837,-0.6367 0.36301,-0.0424 0.72841,-0.0641 1.094028,-0.0652 0.05541,1.94489 0.13875,3.88978 0.250771,5.83142 -0.370398,0.0456 -0.73645,0.13364 -1.092072,0.27163 -0.948867,0.36833 -1.761375,0.97679 -2.558237,1.5972 -0.04227,0.0326 -0.08453,0.0652 -0.126798,0.0978"
       style="fill:#a98563;fill-opacity:1;fill-rule:nonzero;stroke:none;stroke-width:0.0108653" />
    <path
       id="path39"
       d="m 44.497165,85.669612 c -0.123538,-0.063 -0.246968,-0.12712 -0.370507,-0.19014 -0.453844,-0.2336 -0.909427,-0.47264 -1.409013,-0.59324 -0.173194,-0.0413 -0.345626,-0.0609 -0.515777,-0.0609 -0.269459,0 -0.533487,0.0489 -0.786105,0.13581 0.0189,-0.24338 0.03857,-0.48567 0.059,-0.72906 0.24045,-0.0598 0.48731,-0.0913 0.737755,-0.0913 0.255661,0 0.515125,0.0337 0.775892,0.10321 0.528054,0.14234 1.01884,0.39985 1.502999,0.64866 0.0014,0.25968 0.0034,0.51828 0.0058,0.77687 m -2.912012,-2.66743 c 0.02836,-0.29662 0.05791,-0.59433 0.08877,-0.89095 0.853253,-0.57804 1.816571,-1.23974 2.839431,-1.61242 -0.0039,0.2499 -0.0073,0.49981 -0.01021,0.74971 -0.169499,0.0695 -0.334868,0.14776 -0.494806,0.22817 -0.853253,0.43027 -1.634034,0.99092 -2.423181,1.52549 m 2.977637,-8.8737 c -0.43559,-0.23469 -0.900191,-0.35529 -1.375656,-0.35529 -0.08508,0 -0.170368,0.004 -0.255987,0.0119 0.08301,-0.26185 0.182863,-0.50198 0.291842,-0.70407 0.42842,0.004 0.848581,0.0902 1.24636,0.24556 0.0288,0.1532 0.0527,0.32921 0.07073,0.52696 0.0083,0.0924 0.01586,0.18363 0.02271,0.2749"
       style="fill:#806753;fill-opacity:1;fill-rule:nonzero;stroke:none;stroke-width:0.0108653" />
    <path
       id="path40"
       d="m 44.46935,73.326622 c -0.397779,-0.15537 -0.81794,-0.24121 -1.24636,-0.24556 0.214699,-0.39875 0.464818,-0.653 0.69136,-0.653 0.229801,0 0.435264,0.26186 0.555,0.89856"
       style="fill:#a98563;fill-opacity:1;fill-rule:nonzero;stroke:none;stroke-width:0.0108653" />
    <path
       id="path41"
       d="m 41.673923,82.111232 c 0.26783,-2.5816 0.629536,-5.15233 1.10348,-7.70894 0.03977,-0.21405 0.09203,-0.42158 0.153745,-0.61715 0.08562,-0.008 0.170911,-0.012 0.255987,-0.012 0.475465,0 0.940066,0.12061 1.375656,0.3553 0.129298,1.7341 0.0067,3.50949 -0.02912,5.24034 -0.0078,0.37702 -0.01456,0.75405 -0.02032,1.12999 -1.02286,0.37268 -1.986179,1.03438 -2.839432,1.61241"
       style="fill:#a98563;fill-opacity:1;fill-rule:nonzero;stroke:none;stroke-width:0.0108653" />
    <path
       id="path42"
       d="m 41.145869,89.577862 c 0.06171,-1.5407 0.150484,-3.08031 0.269894,-4.61667 0.252618,-0.0869 0.516646,-0.13581 0.786105,-0.13581 0.170151,0 0.342583,0.0195 0.515777,0.0609 0.499586,0.1206 0.955169,0.35964 1.409013,0.59324 0.123539,0.063 0.246969,0.12713 0.370507,0.19014 0.01,1.0898 0.02868,2.18067 0.05607,3.26938 -0.0086,0 -0.01717,0 -0.02564,0 -1.15031,0.009 -2.311051,0.21622 -3.381719,0.63887"
       style="fill:#a98563;fill-opacity:1;fill-rule:nonzero;stroke:none;stroke-width:0.0108653" />
    <path
       id="path43"
       d="m 41.604493,110.29801 c -0.05183,-0.62367 -0.09257,-1.24733 -0.130601,-1.86883 -0.115172,-1.87753 -0.213394,-3.75831 -0.287604,-5.64127 0.118323,0.0109 0.236538,0.0261 0.353774,0.0467 0.63323,0.10757 1.24712,0.30532 1.856556,0.50416 0.652027,0.21187 1.306771,0.41614 1.965643,0.60628 0.04683,0.0142 0.09366,0.0272 0.14038,0.0413 0.140488,1.37229 0.29608,2.74567 0.466882,4.1147 -0.444283,0.22599 -0.885088,0.45743 -1.327415,0.67907 -1.012429,0.50633 -2.025076,1.01157 -3.037615,1.51789"
       style="fill:#a98563;fill-opacity:1;fill-rule:nonzero;stroke:none;stroke-width:0.0108653" />
    <path
       id="path44"
       d="m 44.491407,84.892742 c -0.484159,-0.24881 -0.974945,-0.50632 -1.502999,-0.64866 -0.260767,-0.0695 -0.520231,-0.10321 -0.775892,-0.10321 -0.250445,0 -0.497305,0.0315 -0.737755,0.0913 0.03455,-0.41071 0.07128,-0.81924 0.110393,-1.22995 0.789147,-0.53457 1.569928,-1.09522 2.423181,-1.52549 0.159937,-0.0804 0.325307,-0.15863 0.494806,-0.22817 -0.01445,1.21474 -0.01837,2.4284 -0.01173,3.64422"
       style="fill:#a98563;fill-opacity:1;fill-rule:nonzero;stroke:none;stroke-width:0.0108653" />
    <path
       id="path45"
       d="m 45.42854,103.24751 c -0.619323,-0.18145 -1.235169,-0.37376 -1.848733,-0.57369 -0.648659,-0.21187 -1.303077,-0.42157 -1.979442,-0.5237 -0.146139,-0.0217 -0.293037,-0.038 -0.440154,-0.0489 -0.04617,-1.27124 -0.08105,-2.543567 -0.10246,-3.816977 0.05422,-0.0424 0.108436,-0.0848 0.162762,-0.12713 0.747534,-0.583461 1.493437,-1.190841 2.350058,-1.609151 0.414838,-0.20318 0.849016,-0.33465 1.293081,-0.39658 0.144943,2.367551 0.332913,4.735098 0.564888,7.096128"
       style="fill:#a98563;fill-opacity:1;fill-rule:nonzero;stroke:none;stroke-width:0.0108653" />
    <path
       id="path46"
       d="m 46.917304,114.71585 c -1.149984,-0.339 -2.332673,-0.58673 -3.501129,-0.58673 -0.418966,0 -0.836303,0.0315 -1.249293,0.10214 -0.237842,-1.04633 -0.388326,-2.11874 -0.495567,-3.19767 0.84945,-0.42374 1.698792,-0.84858 2.548133,-1.27341 0.614867,-0.30749 1.226911,-0.62259 1.842322,-0.93007 0.252184,1.95902 0.535768,3.91368 0.85184,5.86292 0.0012,0.008 0.0025,0.0152 0.0037,0.0228"
       style="fill:#a98563;fill-opacity:1;fill-rule:nonzero;stroke:none;stroke-width:0.0108653" />
    <path
       id="path47"
       d="m 45.126375,118.95006 c -0.06639,0 -0.133317,-0.004 -0.200682,-0.0142 -0.861076,-0.12277 -1.419988,-0.95941 -1.781911,-1.7504 -0.337803,-0.73884 -0.601938,-1.50267 -0.810987,-2.2828 0.358664,-0.0587 0.723087,-0.0858 1.089139,-0.0858 0.390608,0 0.783172,0.0315 1.172584,0.088 0.825655,0.11951 1.636751,0.32704 2.43622,0.57368 0.08138,0.6541 0.102895,1.31253 -0.09029,1.93729 -0.250662,0.81055 -0.986678,1.53418 -1.814072,1.53418"
       style="fill:#a98563;fill-opacity:1;fill-rule:nonzero;stroke:none;stroke-width:0.0108653" />
    <path
       id="path48"
       d="m 39.631735,31.225362 c -3.84708,4.63079 -6.45193,10.19926 -8.175852,15.96765 -1.723858,5.7684 -2.597537,11.75627 -3.258365,17.73979 2.096537,-4.02342 4.192945,-8.04793 6.289493,-12.07136 -0.846516,3.09662 -1.162371,6.33774 -0.929854,9.53975 1.015799,-1.52767 1.520166,-3.32805 2.061802,-5.08062 2.151222,-6.96032 5.121037,-13.66638 8.828715,-19.93676 -0.713308,5.78904 -1.427701,11.63566 -0.857707,17.441 0.566082,-2.64136 1.132165,-5.28271 1.698247,-7.92407 0.210136,1.1615 0.420162,2.32409 0.630189,3.48559 1.15357,-5.30118 2.915053,-10.46872 5.238925,-15.37115 -0.0414,2.79238 0.591507,5.59237 1.829936,8.09574 0.752966,-2.22413 1.505932,-4.44826 2.258898,-6.67239 0.03803,1.80147 0.07617,3.60402 0.114195,5.40658 1.198117,-4.67643 2.831497,-9.24094 4.872003,-13.61532 0.660937,3.92455 1.967166,7.73936 3.850341,11.24668 -0.244471,-0.45634 2.612344,-4.98174 2.939388,-5.68581 0.899109,-1.9362 1.716289,-3.90934 2.448827,-5.91399 0.962233,-2.63267 2.407421,-6.30405 -0.379088,-8.38367 -2.489575,-1.85906 -6.842109,-0.73993 -9.597115,-0.14669 -3.58555,0.77253 -7.053756,2.09266 -10.246854,3.89739 -3.645963,2.06006 -6.938043,4.75683 -9.616124,7.98166"
       style="fill:#93ad3f;fill-opacity:1;fill-rule:nonzero;stroke:none;stroke-width:0.0108653" />
    <path
       id="path49"
       d="m 88.062603,33.364012 c 8.697358,7.34821 14.054057,18.28958 15.381477,29.5971 -1.90806,-4.35155 -3.816109,-8.70419 -5.724179,-13.05575 0.0452,4.46021 -0.32248,8.92585 -1.09696,13.3187 -1.46833,-4.96328 -2.68992,-9.99935 -3.65889,-15.08322 -0.21459,2.39905 -0.42929,4.7992 -0.64388,7.19935 -1.01623,-5.30445 -2.58822,-10.50349 -4.681862,-15.48198 -0.22969,4.89374 -0.459494,9.78747 -0.689183,14.68121 -0.857274,-3.03468 -1.811466,-6.04112 -2.86073,-9.01495 0.140927,2.19044 0.282066,4.38089 0.423096,6.57134 -1.709657,-6.16389 -3.481573,-12.46251 -7.155889,-17.69742 0.778823,2.88474 1.116952,5.889 0.998952,8.87479 -1.405317,-1.85906 -2.716106,-3.78874 -3.925523,-5.78035 0.737858,2.22196 1.104674,4.56669 1.080658,6.90708 -2.79423,-4.94915 -5.588569,-9.8983 -8.382804,-14.84745 0.566735,2.436 1.13347,4.872 1.700205,7.3091 -2.042674,-2.1948 -4.161631,-4.31897 -6.35164,-6.36599 0.71689,1.9601 1.433787,3.9202 2.150677,5.88139 -0.61052,-1.33643 -3.184295,-2.85323 -4.301143,-3.85392 -1.504952,-1.3473 -3.15735,-2.62615 -4.557234,-4.0821 -3.083901,-3.20635 0.739929,-3.64966 3.537309,-3.9854 6.559602,-0.78664 13.287729,0.37051 19.317547,3.02708 3.403879,1.49941 6.598061,3.48124 9.439996,5.88139"
       style="fill:#93ad3f;fill-opacity:1;fill-rule:nonzero;stroke:none;stroke-width:0.0108653" />
    <path
       id="path50"
       d="m 41.578199,22.614962 c -0.299013,-0.31075 -0.604328,-0.69647 -0.540875,-1.12238 0.04683,-0.31401 0.285106,-0.56174 0.517298,-0.77905 5.030095,-4.71011 13.103129,-5.80642 19.207369,-2.60876 0.917357,0.48025 1.809834,1.06371 2.426332,1.896 0.61639,0.83228 0.917904,1.95249 0.569665,2.9282 -0.338995,0.94854 -1.20909,1.59828 -2.081898,2.10135 -6.079466,3.50515 -15.142114,2.72936 -20.097891,-2.41536"
       style="fill:#93ad3f;fill-opacity:1;fill-rule:nonzero;stroke:none;stroke-width:0.0108653" />
    <path
       id="path51"
       d="m 29.257155,35.457762 c -0.289995,-1.21583 0.781976,-2.30236 1.789191,-3.04229 3.615541,-2.65983 7.790318,-4.54496 12.163932,-5.54239 0.614107,-0.14017 2.246729,-0.5161 3.990828,-0.71494 1.708462,0.60628 3.535355,0.94202 5.369854,1.00721 0.218501,0.40854 0.238494,0.94963 -0.01293,1.65588 -0.33965,0.95397 -1.313616,1.56134 -2.303663,1.77321 -0.440915,0.0945 -0.888783,0.12496 -1.339367,0.12496 -0.56152,0 -1.127276,-0.0467 -1.688252,-0.0782 -0.493177,-0.0272 -0.986897,-0.0402 -1.480725,-0.0402 -4.547024,0 -9.092634,1.13869 -13.09661,3.29437 -1.09957,0.59216 -2.178821,1.26798 -3.392259,1.56243"
       style="fill:#a7bc63;fill-opacity:1;fill-rule:nonzero;stroke:none;stroke-width:0.0108653" />
    <path
       id="path52"
       d="m 52.57096,27.165352 c -1.834499,-0.0652 -3.661392,-0.40093 -5.369854,-1.00721 0.680386,-0.0782 1.37783,-0.1293 2.038224,-0.1293 1.536028,0 2.872353,0.27598 3.33163,1.13651"
       style="fill:#a7bc63;fill-opacity:1;fill-rule:nonzero;stroke:none;stroke-width:0.0108653" />
    <path
       id="path53"
       d="m 45.394205,22.617132 c -0.183406,0 -0.364314,-0.037 -0.534247,-0.11951 -0.706463,-0.34334 -0.866509,-1.35056 -0.51632,-2.05464 0.350189,-0.70298 1.055456,-1.15389 1.756704,-1.5081 2.399712,-1.21257 4.832129,-1.81776 7.467836,-1.81776 0.333348,0 0.669955,0.01 1.010039,0.0293 0.319549,0.0185 0.650288,0.0478 0.928985,0.20536 0.278585,0.15646 0.490026,0.47807 0.419945,0.7899 -0.059,0.26294 -0.292606,0.44874 -0.528054,0.57913 -1.005369,0.55521 -2.221088,0.49002 -3.369117,0.54 -1.434221,0.0609 -2.945151,0.36725 -3.993002,1.34839 -0.484484,0.45417 -0.844668,1.03003 -1.34632,1.46573 -0.358773,0.31074 -0.835543,0.54217 -1.296449,0.54217"
       style="fill:#a7bc63;fill-opacity:1;fill-rule:nonzero;stroke:none;stroke-width:0.0108653" />
    <path
       id="path54"
       d="m 19.33604,51.032092 c -0.234473,0 -0.456777,-0.0956 -0.558259,-0.30639 -0.07095,-0.14669 -0.07019,-0.31728 -0.05683,-0.47917 0.06367,-0.77035 0.375831,-1.49506 0.694185,-2.19914 1.618822,-3.58012 3.506235,-7.03963 5.640943,-10.33834 0.291951,-0.45091 0.59857,-0.91051 1.036442,-1.22234 0.331827,-0.23578 0.70983,-0.35096 1.053826,-0.35096 0.752749,0 1.343061,0.5487 0.93257,1.57221 -0.222304,0.55413 -0.67767,0.97462 -1.105111,1.39185 -3.000564,2.92712 -5.255876,6.61154 -6.496912,10.61432 -0.127124,0.41071 -0.259681,0.84858 -0.588574,1.12456 -0.15005,0.12604 -0.355404,0.1934 -0.552284,0.1934"
       style="fill:#a7bc63;fill-opacity:1;fill-rule:nonzero;stroke:none;stroke-width:0.0108653" />
    <path
       id="path14-6"
       d="m 153.34118,66.476194 c 0.14874,-0.63996 0.48796,-1.23538 0.96332,-1.68847 1.3474,3.90717 2.60745,7.84584 3.77895,11.81059 1.0133,-2.82824 2.02649,-5.65539 3.03979,-8.48254 0.39191,0.73014 0.78382,1.4603 1.17563,2.19045 -0.17037,-3.5334 -0.34085,-7.06789 -0.51133,-10.60238 1.14521,1.28863 2.29041,2.57617 3.43551,3.86479 -1.14717,-4.55039 -2.59931,-9.02363 -4.34341,-13.38062 1.42313,0.78339 2.70036,1.8308 3.74723,3.07379 -1.02732,-4.52322 -2.05463,-9.04754 -3.08184,-13.57076 -0.55533,-2.4447 -1.1703,-5.00783 -2.85888,-6.86036 -4.41555,-4.84702 -12.55812,-1.47877 -12.94797,4.88178 -0.14897,2.42948 0.84184,4.97088 0.9255,7.43079 0.12072,3.54861 0.73276,6.98856 1.81973,10.37202 1.22463,3.81155 2.93548,7.45469 4.85777,10.96092"
       style="fill:#3e5a6e;fill-opacity:1;fill-rule:nonzero;stroke:none;stroke-width:0.0108653" />
    <path
       id="path15-0"
       d="m 171.38596,21.220004 c 4.73217,1.30601 9.1374,3.94737 12.26824,7.72741 5.11342,6.17476 6.38836,14.60081 7.04517,22.59116 0.46264,5.62714 0.71472,11.30752 -0.012,16.90642 -0.95442,-2.02421 -1.90871,-4.04733 -2.86312,-6.07045 -0.25621,1.6776 -0.5123,3.35629 -0.76829,5.03498 -1.61491,-4.1864 -3.29175,-8.3489 -5.02976,-12.48641 -0.96083,1.6537 -1.92165,3.3074 -2.88257,4.9611 -0.0405,-1.20388 -0.2574,-2.40232 -0.64127,-3.54426 -1.04601,1.47768 -2.09201,2.95644 -3.13801,4.43521 -0.47004,-4.74922 -1.2493,-9.46802 -2.33138,-14.1162 -1.09272,0.98982 -2.18555,1.97966 -3.27827,2.96948 -0.35715,-1.1126 -0.96539,-2.14372 -1.76627,-2.99447 -0.76785,0.94202 -1.5357,1.88295 -2.30355,2.82498 0.27109,-0.33248 -7.51815,-6.81364 -8.22831,-7.42427 -2.83703,-2.44035 -5.64648,-4.97957 -7.83442,-8.03707 -1.63534,-2.28606 -3.83177,-5.66082 -2.07919,-8.44886 1.7504,-2.7837 6.1188,-4.02451 9.09209,-4.64384 4.84365,-1.00939 9.96697,-1.00395 14.75096,0.31509"
       style="fill:#446e89;fill-opacity:1;fill-rule:nonzero;stroke:none;stroke-width:0.0108653" />
    <path
       id="path16-3"
       d="m 119.71011,47.335864 c -0.0747,-7.32213 2.32594,-15.02563 7.96395,-19.69989 5.11093,-4.23638 12.16849,-5.43157 18.78862,-4.93611 2.09113,0.15646 4.39273,0.58781 5.66604,2.25455 0.84217,1.10174 1.0673,2.54683 1.17573,3.9289 0.22731,2.89778 0.0622,5.82489 -0.4897,8.67812 -0.66419,3.43344 -1.87872,6.73215 -3.08824,10.01347 -1.15488,3.13356 -2.30964,6.26603 -3.46452,9.39958 -2.07168,-1.79169 -4.28462,-3.41822 -6.61165,-4.86222 -0.36203,1.45812 -0.5576,2.95754 -0.58172,4.45912 -0.64953,-0.78665 -1.459,-1.44074 -2.36451,-1.91012 -0.0583,4.38415 -0.38594,8.76504 -0.98038,13.10899 -1.97086,-1.94706 -4.23367,-3.5975 -6.68934,-4.87961 -0.17536,2.097 -0.35084,4.19292 -0.52609,6.28993 -0.5436,-1.11478 -1.92067,-4.36568 -2.46415,-5.48046 0.40147,0.40201 -0.66289,7.85018 -1.0736,9.09643 -1.62697,-1.76018 -2.82335,-5.54457 -3.17756,-8.09139 -0.79947,-5.74667 -2.02312,-11.51615 -2.08288,-17.36929"
       style="fill:#446e89;fill-opacity:1;fill-rule:nonzero;stroke:none;stroke-width:0.0108653" />
    <path
       id="path17-2"
       d="m 139.17477,123.74181 c 0,0 -1.28145,-27.558766 0.46938,-43.229806 3.57089,-31.96357 12.69851,-52.82605 12.69851,-52.82605 h 5.21567 c 0,0 -9.56093,40.42113 -9.46564,53.8952 0.17374,24.557766 7.07517,42.160656 7.07517,42.160656 h -15.99309"
       style="fill:#63442b;fill-opacity:1;fill-rule:nonzero;stroke:none;stroke-width:0.0108653" />
    <path
       id="path18-6"
       d="m 146.09097,90.449414 c -0.50078,-0.23251 -1.0711,-0.30205 -1.61654,-0.33139 -0.55239,-0.0293 -1.10761,-0.013 -1.65717,0.0511 -1.05709,0.12387 -2.10527,0.44765 -3.03121,0.97462 -0.31314,0.17819 -0.60943,0.38137 -0.88921,0.60628 -0.0846,2.44905 -0.13419,4.95567 -0.15755,7.437311 0.59064,-0.46178 1.18095,-0.92355 1.77246,-1.383151 0.79686,-0.62041 1.60937,-1.22887 2.55823,-1.5972 0.99429,-0.38572 2.06887,-0.38029 3.09825,-0.1456 1.02546,0.23469 2.01595,0.67039 2.93928,1.16802 -0.15483,-1.26798 -0.29619,-2.57073 -0.42114,-3.90607 -0.37724,-0.53567 -0.76828,-1.06155 -1.17693,-1.57331 -0.40506,-0.5074 -0.8162,-1.02133 -1.41847,-1.30057"
       style="fill:#95693f;fill-opacity:1;fill-rule:nonzero;stroke:none;stroke-width:0.0108653" />
    <path
       id="path19-9"
       d="m 145.87312,69.895504 c -0.46492,-0.17927 -0.85423,-0.0532 -1.27656,0.17385 -1.3423,0.72145 -2.64375,1.53418 -3.90782,2.39254 -0.0844,0.57152 -0.16722,1.14738 -0.24838,1.7265 0.41864,-0.25642 0.87216,-0.452 1.35751,-0.55522 1.01819,-0.21622 2.03594,0.0358 2.87225,0.64431 0.80675,0.58673 1.42498,1.37881 1.99628,2.18719 0.5136,0.72689 1.01841,1.4603 1.52332,2.19262 0.13125,-2.04594 0.38919,-4.43196 0.73873,-7.0342 -0.59227,-0.39332 -1.20083,-0.76166 -1.82385,-1.10392 -0.39898,-0.21839 -0.80621,-0.4596 -1.23148,-0.62367"
       style="fill:#95693f;fill-opacity:1;fill-rule:nonzero;stroke:none;stroke-width:0.0108653" />
    <path
       id="path20-4"
       d="m 140.99525,82.600314 c 1.52614,-1.03437 3.40573,-2.34582 5.3516,-1.78408 0.48851,0.14124 0.92649,0.4031 1.34339,0.68777 0.13614,0.0924 0.27022,0.18906 0.40473,0.28359 -5.4e-4,-0.0685 -0.002,-0.1369 -0.002,-0.20644 -0.004,-0.55522 0.009,-1.15824 0.0364,-1.80039 -0.71907,-1.0398 -1.42596,-2.0894 -2.16328,-3.11617 -0.51198,-0.71276 -1.08523,-1.43531 -1.82842,-1.9199 -0.78404,-0.51067 -1.6788,-0.63453 -2.5691,-0.33356 -0.46384,0.15646 -0.87933,0.40636 -1.25614,0.70841 -0.23893,1.76019 -0.46297,3.55731 -0.668,5.39246 -0.1143,1.02242 -0.21557,2.09701 -0.3052,3.2107 0.55206,-0.37485 1.10424,-0.74862 1.6563,-1.12239"
       style="fill:#95693f;fill-opacity:1;fill-rule:nonzero;stroke:none;stroke-width:0.0108653" />
    <path
       id="path21-1"
       d="m 147.09276,90.276664 c 0.46058,0.3781 0.8225,0.87683 1.18616,1.34512 0.0987,0.12604 0.19384,0.25533 0.29087,0.38355 -0.0976,-1.1615 -0.18276,-2.34691 -0.25262,-3.55405 -0.0339,-0.0174 -0.0677,-0.0348 -0.10159,-0.0522 -1.05209,-0.5411 -2.10396,-1.08219 -3.15594,-1.62328 -0.53121,-0.27381 -1.0623,-0.54761 -1.5934,-0.82033 -0.45384,-0.2336 -0.90943,-0.47264 -1.40901,-0.59324 -0.93203,-0.22383 -1.84135,0.1934 -2.50293,0.84097 -0.15342,0.14994 -0.29174,0.31292 -0.42201,0.48242 -0.0815,1.36034 -0.14864,2.76087 -0.2034,4.18531 1.43846,-0.9757 3.20048,-1.44182 4.93828,-1.45594 1.12608,-0.009 2.32626,0.12169 3.22559,0.86162"
       style="fill:#95693f;fill-opacity:1;fill-rule:nonzero;stroke:none;stroke-width:0.0108653" />
    <path
       id="path22-3"
       d="m 154.13326,43.086444 c 0.28521,-1.3473 0.56358,-2.64353 0.83044,-3.87348 -0.50415,-0.33683 -1.03775,-0.63236 -1.59558,-0.86922 -0.6668,-0.28251 -1.36946,-0.48025 -2.09896,-0.39007 -1.2067,0.15103 -2.25346,0.91703 -3.18429,1.67977 -0.15766,0.50742 -0.3177,1.03004 -0.47949,1.5657 0.8614,0.01 1.73117,0.0695 2.57964,0.18797 1.43553,0.19992 2.88833,0.71059 3.94824,1.69933"
       style="fill:#95693f;fill-opacity:1;fill-rule:nonzero;stroke:none;stroke-width:0.0108653" />
    <path
       id="path23-7"
       d="m 144.70184,104.42112 c -0.65887,-0.19015 -1.31361,-0.39442 -1.96564,-0.60629 -0.60943,-0.19883 -1.22332,-0.39658 -1.85655,-0.50415 -0.74341,-0.12712 -1.52169,-0.0728 -2.15644,0.27924 0.005,2.91299 0.0401,5.71298 0.0885,8.25003 0.58281,-0.29119 1.16563,-0.58238 1.74855,-0.87357 1.14053,-0.57043 2.28096,-1.14086 3.42138,-1.7102 1.07719,-0.53892 2.14546,-1.14195 3.27633,-1.56135 0.97722,-0.3629 2.07875,-0.53023 3.07129,-0.13038 0.16581,0.0674 0.32792,0.14777 0.48286,0.24012 -0.12767,-0.63453 -0.25382,-1.28319 -0.37779,-1.94924 -0.5876,-0.13147 -1.17465,-0.26402 -1.76051,-0.40201 -1.33154,-0.31401 -2.65798,-0.65083 -3.97203,-1.0322"
       style="fill:#95693f;fill-opacity:1;fill-rule:nonzero;stroke:none;stroke-width:0.0108653" />
    <path
       id="path24-8"
       d="m 145.82673,81.404044 c -0.85412,-0.13473 -1.72628,0.16841 -2.47881,0.5487 -0.86477,0.43679 -1.65522,1.00504 -2.45534,1.54722 -0.54045,0.36616 -1.08089,0.73232 -1.62122,1.09848 -0.0241,0.32813 -0.0476,0.65844 -0.0699,0.99201 0.0576,-0.0522 0.11659,-0.10214 0.17722,-0.15103 0.84173,-0.67365 1.88545,-1.00613 2.94928,-0.71929 0.54424,0.14669 1.04893,0.41506 1.54754,0.67148 0.55142,0.28467 1.10294,0.56826 1.65457,0.85184 0.91453,0.47047 1.82907,0.94094 2.74371,1.41141 -0.0852,-1.63524 -0.14353,-3.3085 -0.16906,-5.0176 -0.33509,-0.24556 -0.67365,-0.48786 -1.02341,-0.71168 -0.38811,-0.24773 -0.79567,-0.44874 -1.25462,-0.52154"
       style="fill:#95693f;fill-opacity:1;fill-rule:nonzero;stroke:none;stroke-width:0.0108653" />
    <path
       id="path25-8"
       d="m 150.30834,45.041114 c 0.49861,-0.16624 1.00972,-0.38137 1.52767,-0.47808 0.52588,-0.0978 0.97527,0.0348 1.40912,0.33792 0.15027,0.10539 0.29521,0.21839 0.43624,0.33573 0.0944,-0.45308 0.18841,-0.90182 0.28185,-1.34512 -0.38431,-0.43787 -0.85945,-0.79099 -1.37631,-1.06697 -1.42097,-0.75731 -3.06804,-0.86705 -4.64666,-0.91704 -0.17852,-0.005 -0.35942,-0.0152 -0.54044,-0.0206 -0.42875,1.44074 -0.86857,2.98035 -1.31296,4.61558 0.90942,-0.32596 1.8207,-0.64757 2.7349,-0.96049 0.49481,-0.16842 0.99038,-0.33574 1.48659,-0.50089"
       style="fill:#95693f;fill-opacity:1;fill-rule:nonzero;stroke:none;stroke-width:0.0108653" />
    <path
       id="path26-3"
       d="m 152.58963,45.305144 c -0.40984,-0.20644 -0.85369,-0.01 -1.25614,0.12277 -1.83081,0.59977 -3.65216,1.22779 -5.46428,1.88188 -0.16276,0.60846 -0.32585,1.22995 -0.48915,1.86232 0.83369,0.0978 1.63512,0.4596 2.31768,0.93767 0.92203,0.6454 1.70835,1.47334 2.4812,2.28606 0.57858,0.60737 1.13977,1.23213 1.68553,1.86883 0.54425,-2.81846 1.1062,-5.60433 1.65544,-8.2522 -0.27652,-0.26511 -0.58575,-0.53349 -0.93028,-0.70733"
       style="fill:#95693f;fill-opacity:1;fill-rule:nonzero;stroke:none;stroke-width:0.0108653" />
    <path
       id="path27-8"
       d="m 140.93995,102.62617 c 0.67636,0.10213 1.33078,0.31183 1.97944,0.5237 0.68386,0.22274 1.37055,0.4357 2.0618,0.63454 1.75736,0.50632 3.5347,0.9355 5.31868,1.33643 -0.39615,-2.1937 -0.766,-4.54604 -1.08577,-7.039626 -0.25979,-0.15212 -0.52393,-0.29771 -0.79284,-0.43353 -0.87499,-0.44222 -1.80451,-0.81924 -2.77402,-0.98983 -0.93844,-0.16516 -1.87927,-0.0532 -2.73709,0.36616 -0.85662,0.41831 -1.60252,1.02569 -2.35005,1.609151 -0.60944,0.4759 -1.21866,0.95181 -1.82798,1.426625 -0.007,0.92897 -0.01,1.85252 -0.01,2.76629 0.68353,-0.27597 1.46258,-0.314 2.2175,-0.19991"
       style="fill:#95693f;fill-opacity:1;fill-rule:nonzero;stroke:none;stroke-width:0.0108653" />
    <path
       id="path28-1"
       d="m 151.20799,31.513804 c 0.69973,-0.30423 1.43303,-0.50741 2.18328,-0.64105 0.72623,-0.1293 1.46529,-0.21405 2.20381,-0.21079 0.41429,0.002 0.83576,0.0348 1.24994,0.10431 0.44537,-1.94815 0.71331,-3.08032 0.71331,-3.08032 h -5.21578 c 0,0 -0.61585,1.40815 -1.58894,4.04842 0.14896,-0.0793 0.29999,-0.1532 0.45438,-0.22057"
       style="fill:#95693f;fill-opacity:1;fill-rule:nonzero;stroke:none;stroke-width:0.0108653" />
    <path
       id="path29-5"
       d="m 148.75786,116.04265 c 1.53049,0.55522 3.03523,1.18106 4.51074,1.86992 -0.68712,-2.3795 -1.47975,-5.42614 -2.23532,-9.02907 -0.34541,-0.43027 -0.88346,-0.70733 -1.43672,-0.81925 -0.97734,-0.19666 -2.00324,0.19341 -2.87551,0.60085 -1.0661,0.49655 -2.10993,1.04524 -3.16202,1.57113 -1.57742,0.78882 -3.15485,1.57656 -4.73238,2.36538 0.0229,1.1213 0.0483,2.18719 0.0745,3.18245 0.35725,-0.24339 0.73177,-0.45961 1.1302,-0.63562 2.83118,-1.24517 6.0007,-0.0956 8.72648,0.89421"
       style="fill:#95693f;fill-opacity:1;fill-rule:nonzero;stroke:none;stroke-width:0.0108653" />
    <path
       id="path30-3"
       d="m 152.27149,118.20702 c -1.3398,-0.60303 -2.70481,-1.15063 -4.08981,-1.64066 -1.38164,-0.49002 -2.79184,-0.97462 -4.24758,-1.18541 -1.36164,-0.19774 -2.76044,-0.0837 -3.98778,0.57369 -0.36095,0.19341 -0.69843,0.42157 -1.02232,0.66713 0.12071,4.32113 0.25077,7.12004 0.25077,7.12004 h 15.99309 c 0,0 -0.69093,-1.76344 -1.64067,-4.94806 -0.41614,-0.20101 -0.83445,-0.39767 -1.2557,-0.58673"
       style="fill:#95693f;fill-opacity:1;fill-rule:nonzero;stroke:none;stroke-width:0.0108653" />
    <path
       id="path31-5"
       d="m 153.2586,31.597464 c -1.03242,0.21188 -2.0593,0.56717 -2.89289,1.20388 -0.15581,0.43352 -0.31824,0.89204 -0.4872,1.37772 0.68539,-0.0869 1.3762,-0.11843 2.06702,-0.0804 0.67919,0.038 1.35773,0.14016 1.98444,0.41505 0.58738,0.25751 1.01091,0.68451 1.40326,1.17889 0.1017,0.12821 0.20567,0.26294 0.31596,0.39224 0.39615,-1.79061 0.75068,-3.3639 1.04361,-4.65144 -1.13119,-0.18688 -2.32572,-0.063 -3.4342,0.16406"
       style="fill:#95693f;fill-opacity:1;fill-rule:nonzero;stroke:none;stroke-width:0.0108653" />
    <path
       id="path32-4"
       d="m 154.84592,36.179364 c -0.36084,-0.45416 -0.73254,-0.85401 -1.28189,-1.07783 -0.60118,-0.24339 -1.26168,-0.30641 -1.90437,-0.32596 -0.68332,-0.0206 -1.36392,0.0293 -2.03474,0.13907 -0.37029,1.0811 -0.76655,2.2752 -1.18117,3.57904 0.28597,-0.20536 0.58021,-0.39876 0.8878,-0.57043 0.65703,-0.36617 1.37555,-0.63019 2.13123,-0.67583 0.82696,-0.05 1.61568,0.2184 2.36104,0.5487 0.44917,0.19884 0.88139,0.4357 1.29623,0.69864 0.1205,-0.55305 0.23816,-1.08979 0.3529,-1.61132 -0.22969,-0.2097 -0.43081,-0.45635 -0.62703,-0.70408"
       style="fill:#95693f;fill-opacity:1;fill-rule:nonzero;stroke:none;stroke-width:0.0108653" />
    <path
       id="path33-3"
       d="m 145.50925,56.351904 c 1.04839,-0.40202 2.14101,-0.7258 3.24829,-0.91812 0.56945,-0.1 1.14618,-0.13799 1.71096,0.01 0.38626,0.10104 0.74558,0.27706 1.07469,0.4998 0.0514,-0.27054 0.10278,-0.54109 0.1545,-0.81164 -0.70201,-0.83663 -1.42998,-1.65152 -2.1874,-2.43817 -0.72222,-0.7508 -1.45617,-1.53092 -2.33202,-2.1057 -0.58369,-0.38246 -1.26788,-0.67908 -1.97075,-0.74319 -0.59064,2.32301 -1.1803,4.80573 -1.7529,7.43621 0.66604,-0.34768 1.35197,-0.65842 2.05463,-0.92898"
       style="fill:#95693f;fill-opacity:1;fill-rule:nonzero;stroke:none;stroke-width:0.0108653" />
    <path
       id="path34-6"
       d="m 144.54756,59.462634 c 0.49502,0.0837 0.94963,0.34661 1.39369,0.56826 0.47297,0.23687 0.94398,0.47698 1.41293,0.72037 1.01525,0.52805 2.02018,1.07567 3.01588,1.63849 0.32563,-1.87753 0.67278,-3.78874 1.03188,-5.69885 -0.17287,-0.14016 -0.35964,-0.26403 -0.56174,-0.36942 -0.88574,-0.46069 -1.83895,-0.26077 -2.76457,-0.0413 -1.68695,0.39984 -3.30566,1.04089 -4.81268,1.89165 -0.11354,0.53239 -0.22654,1.06914 -0.33834,1.61349 0.49165,-0.27706 1.04785,-0.42048 1.62295,-0.3227"
       style="fill:#95693f;fill-opacity:1;fill-rule:nonzero;stroke:none;stroke-width:0.0108653" />
    <path
       id="path35-5"
       d="m 147.58441,64.576944 c 0.89617,0.53131 1.53886,1.34404 2.04952,2.24586 0.19167,-1.21366 0.39637,-2.4523 0.61129,-3.70834 -0.20764,-0.11843 -0.41386,-0.23903 -0.62237,-0.35638 -0.88411,-0.49437 -1.77593,-0.9757 -2.67515,-1.44182 -0.4496,-0.23361 -0.90106,-0.46395 -1.35425,-0.68995 -0.39126,-0.19557 -0.80349,-0.44656 -1.24549,-0.50089 -0.60954,-0.075 -1.17704,0.23904 -1.62501,0.653 -0.2749,1.36686 -0.54403,2.76848 -0.80491,4.20488 1.79843,-0.79208 3.84491,-1.48529 5.66637,-0.40636"
       style="fill:#95693f;fill-opacity:1;fill-rule:nonzero;stroke:none;stroke-width:0.0108653" />
    <path
       id="path36-9"
       d="m 142.1284,70.716934 c 0.44297,-0.27381 0.88997,-0.54001 1.34067,-0.80078 0.43602,-0.25208 0.87531,-0.53566 1.35349,-0.70081 0.51295,-0.17819 1.00189,-0.0967 1.48594,0.12169 0.46427,0.20861 0.91442,0.45743 1.35805,0.70624 0.46373,0.26077 0.91845,0.53675 1.3649,0.82577 0.13028,-0.93985 0.27153,-1.90469 0.42245,-2.89017 -0.2297,-0.48242 -0.48373,-0.9518 -0.78426,-1.39294 -0.44363,-0.65083 -1.00895,-1.22777 -1.72683,-1.57112 -0.89617,-0.42701 -1.91913,-0.36073 -2.85442,-0.11083 -0.80143,0.21513 -1.56265,0.5487 -2.31594,0.89422 -0.33118,1.86231 -0.64866,3.78004 -0.94767,5.75209 0.43081,-0.28358 0.86477,-0.56282 1.30362,-0.83336"
       style="fill:#95693f;fill-opacity:1;fill-rule:nonzero;stroke:none;stroke-width:0.0108653" />
    <path
       id="path37-5"
       d="m 146.37032,115.95464 c -0.79947,-0.24664 -1.61056,-0.45417 -2.43622,-0.57369 -0.38941,-0.0565 -0.78197,-0.088 -1.17258,-0.088 -0.36605,0 -0.73048,0.0272 -1.08914,0.0858 -0.0597,-0.22274 -0.11474,-0.44656 -0.16591,-0.67147 0.41299,-0.0706 0.83032,-0.10214 1.24929,-0.10214 1.16845,0 2.35114,0.24773 3.50113,0.58673 0.0408,0.25207 0.0817,0.50741 0.11343,0.76274 m -5.35942,-4.445 c -0.0243,-0.24446 -0.0464,-0.49002 -0.0668,-0.73558 1.01254,-0.50632 2.02518,-1.01156 3.03761,-1.51788 0.44233,-0.22165 0.88314,-0.45308 1.32742,-0.67908 0.0302,0.24229 0.0611,0.48567 0.0923,0.72906 -0.61541,0.30748 -1.22746,0.62258 -1.84232,0.93007 -0.84934,0.42483 -1.69869,0.84967 -2.54814,1.27341 m 3.83133,-7.04724 c -0.0467,-0.0142 -0.0935,-0.0272 -0.14038,-0.0413 -0.65887,-0.19014 -1.31362,-0.39441 -1.96564,-0.60628 -0.60944,-0.19884 -1.22333,-0.39659 -1.85656,-0.50416 -0.11724,-0.0206 -0.23545,-0.0359 -0.35377,-0.0467 -0.009,-0.22925 -0.0177,-0.45634 -0.0261,-0.68668 0.14711,0.0109 0.29401,0.0272 0.44015,0.0489 0.67637,0.10213 1.33078,0.31183 1.97944,0.5237 0.61357,0.19993 1.22941,0.39224 1.84874,0.57369 0.0243,0.24665 0.0489,0.49111 0.0741,0.73885 m -4.44489,-5.702115 c -0.005,-0.28576 -0.009,-0.572601 -0.0124,-0.858361 0.0423,-0.0326 0.0845,-0.0652 0.12679,-0.0978 0.79687,-0.6204 1.60937,-1.22887 2.55824,-1.5972 0.35562,-0.13799 0.72168,-0.22599 1.09207,-0.27163 0.0134,0.23143 0.0271,0.46069 0.0412,0.69212 -0.44406,0.0619 -0.87824,0.1934 -1.29308,0.39658 -0.85662,0.41832 -1.60252,1.02569 -2.35005,1.609161 -0.0543,0.0423 -0.10855,0.0848 -0.16277,0.12712 m 0.0601,-7.954501 c 0.009,-0.25098 0.018,-0.50089 0.028,-0.75187 1.07067,-0.42266 2.23141,-0.63019 3.38172,-0.63888 0.009,0 0.0171,0 0.0256,0 0.006,0.23034 0.0118,0.45851 0.0185,0.68886 -0.36561,10e-4 -0.73102,0.0228 -1.09403,0.0652 -0.8087,0.0945 -1.6123,0.3064 -2.35983,0.6367"
       style="fill:#806753;fill-opacity:1;fill-rule:nonzero;stroke:none;stroke-width:0.0108653" />
    <path
       id="path38-4"
       d="m 140.38495,97.901934 c -0.0286,-2.36647 -0.009,-4.73402 0.0725,-7.09614 0.74753,-0.3303 1.55113,-0.54217 2.35984,-0.6367 0.36301,-0.0424 0.72841,-0.0641 1.09402,-0.0652 0.0554,1.94489 0.13875,3.88978 0.25077,5.83142 -0.37039,0.0456 -0.73645,0.13364 -1.09207,0.27163 -0.94886,0.36833 -1.76137,0.97679 -2.55823,1.5972 -0.0423,0.0326 -0.0845,0.0652 -0.1268,0.0978"
       style="fill:#a98563;fill-opacity:1;fill-rule:nonzero;stroke:none;stroke-width:0.0108653" />
    <path
       id="path39-9"
       d="m 143.83675,86.145664 c -0.12354,-0.063 -0.24697,-0.12712 -0.37051,-0.19014 -0.45384,-0.2336 -0.90943,-0.47264 -1.40901,-0.59324 -0.1732,-0.0413 -0.34563,-0.0609 -0.51578,-0.0609 -0.26946,0 -0.53349,0.0489 -0.7861,0.13581 0.0189,-0.24338 0.0386,-0.48567 0.059,-0.72906 0.24045,-0.0598 0.48731,-0.0913 0.73775,-0.0913 0.25566,0 0.51513,0.0337 0.77589,0.10321 0.52806,0.14234 1.01884,0.39985 1.503,0.64866 0.001,0.25968 0.003,0.51828 0.006,0.77687 m -2.91201,-2.66743 c 0.0284,-0.29662 0.0579,-0.59433 0.0888,-0.89095 0.85325,-0.57804 1.81657,-1.23974 2.83943,-1.61242 -0.004,0.2499 -0.007,0.49981 -0.0102,0.74971 -0.1695,0.0695 -0.33487,0.14776 -0.4948,0.22817 -0.85326,0.43027 -1.63404,0.99092 -2.42319,1.52549 m 2.97764,-8.8737 c -0.43559,-0.23469 -0.90019,-0.35529 -1.37565,-0.35529 -0.0851,0 -0.17037,0.004 -0.25599,0.0119 0.083,-0.26185 0.18286,-0.50198 0.29184,-0.70407 0.42842,0.004 0.84858,0.0902 1.24636,0.24556 0.0288,0.1532 0.0527,0.32921 0.0707,0.52696 0.008,0.0924 0.0159,0.18363 0.0227,0.2749"
       style="fill:#806753;fill-opacity:1;fill-rule:nonzero;stroke:none;stroke-width:0.0108653" />
    <path
       id="path40-1"
       d="m 143.80893,73.802674 c -0.39778,-0.15537 -0.81794,-0.24121 -1.24636,-0.24556 0.2147,-0.39875 0.46482,-0.653 0.69136,-0.653 0.2298,0 0.43527,0.26186 0.555,0.89856"
       style="fill:#a98563;fill-opacity:1;fill-rule:nonzero;stroke:none;stroke-width:0.0108653" />
    <path
       id="path41-7"
       d="m 141.01351,82.587284 c 0.26783,-2.5816 0.62953,-5.15233 1.10348,-7.70894 0.0398,-0.21405 0.092,-0.42158 0.15374,-0.61715 0.0856,-0.008 0.17091,-0.012 0.25599,-0.012 0.47546,0 0.94006,0.12061 1.37565,0.3553 0.1293,1.7341 0.007,3.50949 -0.0291,5.24034 -0.008,0.37702 -0.0146,0.75405 -0.0203,1.12999 -1.02286,0.37268 -1.98617,1.03438 -2.83943,1.61241"
       style="fill:#a98563;fill-opacity:1;fill-rule:nonzero;stroke:none;stroke-width:0.0108653" />
    <path
       id="path42-5"
       d="m 140.48545,90.053914 c 0.0617,-1.5407 0.15049,-3.08031 0.2699,-4.61667 0.25261,-0.0869 0.51664,-0.13581 0.7861,-0.13581 0.17015,0 0.34258,0.0195 0.51578,0.0609 0.49958,0.1206 0.95517,0.35964 1.40901,0.59324 0.12354,0.063 0.24697,0.12713 0.37051,0.19014 0.01,1.0898 0.0287,2.18067 0.0561,3.26938 -0.009,0 -0.0172,0 -0.0256,0 -1.15031,0.009 -2.31105,0.21622 -3.38172,0.63887"
       style="fill:#a98563;fill-opacity:1;fill-rule:nonzero;stroke:none;stroke-width:0.0108653" />
    <path
       id="path43-5"
       d="m 140.94408,110.77406 c -0.0518,-0.62367 -0.0926,-1.24733 -0.1306,-1.86883 -0.11518,-1.87753 -0.2134,-3.75831 -0.28761,-5.64127 0.11832,0.0109 0.23654,0.0261 0.35378,0.0467 0.63323,0.10757 1.24712,0.30532 1.85655,0.50416 0.65203,0.21187 1.30677,0.41614 1.96564,0.60628 0.0468,0.0142 0.0937,0.0272 0.14038,0.0413 0.14049,1.37229 0.29608,2.74567 0.46689,4.1147 -0.44429,0.22599 -0.88509,0.45743 -1.32742,0.67907 -1.01243,0.50633 -2.02507,1.01157 -3.03761,1.51789"
       style="fill:#a98563;fill-opacity:1;fill-rule:nonzero;stroke:none;stroke-width:0.0108653" />
    <path
       id="path44-4"
       d="m 143.83099,85.368794 c -0.48416,-0.24881 -0.97494,-0.50632 -1.503,-0.64866 -0.26077,-0.0695 -0.52023,-0.10321 -0.77589,-0.10321 -0.25045,0 -0.49731,0.0315 -0.73776,0.0913 0.0346,-0.41071 0.0713,-0.81924 0.1104,-1.22995 0.78914,-0.53457 1.56993,-1.09522 2.42318,-1.52549 0.15994,-0.0804 0.32531,-0.15863 0.4948,-0.22817 -0.0145,1.21474 -0.0184,2.4284 -0.0117,3.64422"
       style="fill:#a98563;fill-opacity:1;fill-rule:nonzero;stroke:none;stroke-width:0.0108653" />
    <path
       id="path45-1"
       d="m 144.76812,103.72356 c -0.61932,-0.18145 -1.23517,-0.37376 -1.84873,-0.57369 -0.64866,-0.21187 -1.30308,-0.42157 -1.97944,-0.5237 -0.14614,-0.0217 -0.29304,-0.038 -0.44016,-0.0489 -0.0462,-1.27124 -0.081,-2.54356 -0.10246,-3.816975 0.0542,-0.0424 0.10844,-0.0848 0.16277,-0.12713 0.74753,-0.583461 1.49343,-1.190841 2.35005,-1.609151 0.41484,-0.20318 0.84902,-0.33465 1.29309,-0.39658 0.14494,2.367551 0.33291,4.735096 0.56488,7.096126"
       style="fill:#a98563;fill-opacity:1;fill-rule:nonzero;stroke:none;stroke-width:0.0108653" />
    <path
       id="path46-8"
       d="m 146.25689,115.1919 c -1.14999,-0.339 -2.33268,-0.58673 -3.50113,-0.58673 -0.41897,0 -0.8363,0.0315 -1.24929,0.10214 -0.23785,-1.04633 -0.38833,-2.11874 -0.49557,-3.19767 0.84945,-0.42374 1.69879,-0.84858 2.54813,-1.27341 0.61487,-0.30749 1.22691,-0.62259 1.84232,-0.93007 0.25219,1.95902 0.53577,3.91368 0.85184,5.86292 0.001,0.008 0.002,0.0152 0.004,0.0228"
       style="fill:#a98563;fill-opacity:1;fill-rule:nonzero;stroke:none;stroke-width:0.0108653" />
    <path
       id="path47-8"
       d="m 144.46596,119.42611 c -0.0664,0 -0.13332,-0.004 -0.20068,-0.0142 -0.86108,-0.12277 -1.41999,-0.95941 -1.78191,-1.7504 -0.33781,-0.73884 -0.60194,-1.50267 -0.81099,-2.2828 0.35866,-0.0587 0.72309,-0.0858 1.08914,-0.0858 0.39061,0 0.78317,0.0315 1.17258,0.088 0.82566,0.11951 1.63675,0.32704 2.43622,0.57368 0.0814,0.6541 0.1029,1.31253 -0.0903,1.93729 -0.25066,0.81055 -0.98668,1.53418 -1.81407,1.53418"
       style="fill:#a98563;fill-opacity:1;fill-rule:nonzero;stroke:none;stroke-width:0.0108653" />
    <path
       id="path48-3"
       d="m 138.97132,31.701414 c -3.84708,4.63079 -6.45193,10.19926 -8.17585,15.96765 -1.72386,5.7684 -2.59754,11.75627 -3.25837,17.73979 2.09654,-4.02342 4.19295,-8.04793 6.28949,-12.07136 -0.84651,3.09662 -1.16237,6.33774 -0.92985,9.53975 1.0158,-1.52767 1.52017,-3.32805 2.0618,-5.08062 2.15122,-6.96032 5.12104,-13.66638 8.82872,-19.93676 -0.71331,5.78904 -1.4277,11.63566 -0.85771,17.441 0.56608,-2.64136 1.13217,-5.28271 1.69825,-7.92407 0.21013,1.1615 0.42016,2.32409 0.63019,3.48559 1.15357,-5.30118 2.91505,-10.46872 5.23892,-15.37115 -0.0414,2.79238 0.59151,5.59237 1.82994,8.09574 0.75296,-2.22413 1.50593,-4.44826 2.2589,-6.67239 0.038,1.80147 0.0762,3.60402 0.11419,5.40658 1.19812,-4.67643 2.8315,-9.24094 4.872,-13.61532 0.66094,3.92455 1.96717,7.73936 3.85034,11.24668 -0.24447,-0.45634 2.61235,-4.98174 2.93939,-5.68581 0.89911,-1.9362 1.71629,-3.90934 2.44883,-5.91399 0.96223,-2.63267 2.40742,-6.30405 -0.37909,-8.38367 -2.48957,-1.85906 -6.84211,-0.73993 -9.59711,-0.14669 -3.58555,0.77253 -7.05376,2.09266 -10.24686,3.89739 -3.64596,2.06006 -6.93804,4.75683 -9.61612,7.98166"
       style="fill:#3f72ad;fill-opacity:1;fill-rule:nonzero;stroke:none;stroke-width:0.0108653" />
    <path
       id="path49-5"
       d="m 187.40219,33.840064 c 8.69735,7.34821 14.05405,18.28958 15.38147,29.5971 -1.90806,-4.35155 -3.81611,-8.70419 -5.72418,-13.05575 0.0452,4.46021 -0.32248,8.92585 -1.09696,13.3187 -1.46833,-4.96328 -2.68992,-9.99935 -3.65889,-15.08322 -0.21459,2.39905 -0.42929,4.7992 -0.64388,7.19935 -1.01623,-5.30445 -2.58822,-10.50349 -4.68186,-15.48198 -0.22969,4.89374 -0.45949,9.78747 -0.68918,14.68121 -0.85727,-3.03468 -1.81147,-6.04112 -2.86073,-9.01495 0.14093,2.19044 0.28207,4.38089 0.4231,6.57134 -1.70966,-6.16389 -3.48158,-12.46251 -7.15589,-17.69742 0.77882,2.88474 1.11695,5.889 0.99895,8.87479 -1.40532,-1.85906 -2.71611,-3.78874 -3.92552,-5.78035 0.73785,2.22196 1.10467,4.56669 1.08065,6.90708 -2.79423,-4.94915 -5.58857,-9.8983 -8.3828,-14.84745 0.56673,2.436 1.13347,4.872 1.7002,7.3091 -2.04267,-2.1948 -4.16163,-4.31897 -6.35164,-6.36599 0.71689,1.9601 1.43379,3.9202 2.15068,5.88139 -0.61052,-1.33643 -3.18429,-2.85323 -4.30114,-3.85392 -1.50495,-1.3473 -3.15735,-2.62615 -4.55724,-4.0821 -3.0839,-3.20635 0.73993,-3.64966 3.53731,-3.9854 6.55961,-0.78664 13.28773,0.37051 19.31755,3.02708 3.40388,1.49941 6.59806,3.48124 9.44,5.88139"
       style="fill:#3f87ad;fill-opacity:1;fill-rule:nonzero;stroke:url(#linearGradient2);stroke-width:0.0108653;stroke-opacity:1" />
    <path
       id="path50-2"
       d="m 140.91778,23.091014 c -0.29901,-0.31075 -0.60433,-0.69647 -0.54087,-1.12238 0.0468,-0.31401 0.2851,-0.56174 0.5173,-0.77905 5.03009,-4.71011 13.10312,-5.80642 19.20736,-2.60876 0.91736,0.48025 1.80984,1.06371 2.42634,1.896 0.61639,0.83228 0.9179,1.95249 0.56966,2.9282 -0.33899,0.94854 -1.20909,1.59828 -2.0819,2.10135 -6.07946,3.50515 -15.14211,2.72936 -20.09789,-2.41536"
       style="fill:#3f83ad;fill-opacity:1;fill-rule:nonzero;stroke:none;stroke-width:0.0108653" />
    <path
       id="path51-2"
       d="m 128.59674,35.933814 c -0.29,-1.21583 0.78197,-2.30236 1.78919,-3.04229 3.61554,-2.65983 7.79032,-4.54496 12.16393,-5.54239 0.61411,-0.14017 2.24673,-0.5161 3.99083,-0.71494 1.70846,0.60628 3.53535,0.94202 5.36985,1.00721 0.2185,0.40854 0.2385,0.94963 -0.0129,1.65588 -0.33965,0.95397 -1.31361,1.56134 -2.30366,1.77321 -0.44091,0.0945 -0.88878,0.12496 -1.33937,0.12496 -0.56152,0 -1.12727,-0.0467 -1.68825,-0.0782 -0.49318,-0.0272 -0.9869,-0.0402 -1.48072,-0.0402 -4.54703,0 -9.09264,1.13869 -13.09661,3.29437 -1.09957,0.59216 -2.17882,1.26798 -3.39226,1.56243"
       style="fill:#639cbc;fill-opacity:1;fill-rule:nonzero;stroke:none;stroke-width:0.0108653" />
    <path
       id="path52-6"
       d="m 151.91054,27.641404 c -1.8345,-0.0652 -3.66139,-0.40093 -5.36985,-1.00721 0.68039,-0.0782 1.37783,-0.1293 2.03822,-0.1293 1.53603,0 2.87236,0.27598 3.33163,1.13651"
       style="fill:#639cbc;fill-opacity:1;fill-rule:nonzero;stroke:none;stroke-width:0.0108653" />
    <path
       id="path53-6"
       d="m 144.73379,23.093184 c -0.18341,0 -0.36432,-0.037 -0.53425,-0.11951 -0.70646,-0.34334 -0.86651,-1.35056 -0.51632,-2.05464 0.35019,-0.70298 1.05546,-1.15389 1.75671,-1.5081 2.39971,-1.21257 4.83212,-1.81776 7.46783,-1.81776 0.33335,0 0.66996,0.01 1.01004,0.0293 0.31955,0.0185 0.65029,0.0478 0.92899,0.20536 0.27858,0.15646 0.49002,0.47807 0.41994,0.7899 -0.059,0.26294 -0.29261,0.44874 -0.52805,0.57913 -1.00537,0.55521 -2.22109,0.49002 -3.36912,0.54 -1.43422,0.0609 -2.94515,0.36725 -3.993,1.34839 -0.48449,0.45417 -0.84467,1.03003 -1.34632,1.46573 -0.35878,0.31074 -0.83555,0.54217 -1.29645,0.54217"
       style="fill:#638ebc;fill-opacity:1;fill-rule:nonzero;stroke:none;stroke-width:0.0108653" />
    <path
       id="path54-7"
       d="m 118.67562,51.508144 c -0.23447,0 -0.45677,-0.0956 -0.55826,-0.30639 -0.071,-0.14669 -0.0702,-0.31728 -0.0568,-0.47917 0.0637,-0.77035 0.37584,-1.49506 0.69419,-2.19914 1.61882,-3.58012 3.50623,-7.03963 5.64094,-10.33834 0.29195,-0.45091 0.59857,-0.91051 1.03644,-1.22234 0.33183,-0.23578 0.70983,-0.35096 1.05383,-0.35096 0.75275,0 1.34306,0.5487 0.93257,1.57221 -0.2223,0.55413 -0.67767,0.97462 -1.10511,1.39185 -3.00056,2.92712 -5.25588,6.61154 -6.49691,10.61432 -0.12713,0.41071 -0.25968,0.84858 -0.58858,1.12456 -0.15005,0.12604 -0.3554,0.1934 -0.55228,0.1934"
       style="fill:#6399bc;fill-opacity:1;fill-rule:nonzero;stroke:none;stroke-width:0.0108653" />
  </g>
</svg>
